<?xml version="1.0" encoding="UTF-8"?><svg id="Ebene_1" xmlns="http://www.w3.org/2000/svg" viewBox="0 0 362.99 277.18"><path d="m253.78,170.58c-1.09,3.41-2.58,5.34-7.62,9.92-3.29,2.99-5.32,4.64-8.9,7.22-2.55,1.84-3.29,2.15-5.56,2.31-.79.06-2.82.29-4.52.51-4.24.55-7.4.65-10.07.31-1.16-.15-3.43-.33-5.04-.42-3.01-.16-4.27-.38-4.42-.76-.32-.83.84-1.79,2.71-2.24,1.84-.45,4.78-.29,7.15.41,1.54.45,2.1.54,3.24.52.76-.02,4.32-.05,7.92-.07l6.54-.04v-.35c0-.2-.13-.41-.28-.48-.16-.07-3.61-.15-7.68-.16l-7.39-.04-1.95-.49c-1.07-.27-4.22-1-7.01-1.63-5.57-1.25-6.22-1.45-6.22-1.94s.65-1.08,1.4-1.29c2.3-.64,4.54-.36,12.57,1.52l3.01.71,6.41.05,6.42.05,1.1-.52c1.16-.55,1.45-.9,1.06-1.28-.21-.2-.38-.17-1.36.3l-1.13.53-5.6-.05c-5.28-.05-5.7-.08-7.31-.45-.94-.22-2.18-.51-2.76-.64-7.11-1.59-11.59-2.73-12.09-3.06-1.44-.94.49-2.02,3.29-1.83,1.59.1,5.78.61,8.26.99.91.14,2.47.32,3.47.4,1.64.14,2.01.11,3.79-.25,1.08-.22,3.14-.8,4.57-1.28,5.05-1.7,7.42-2.23,9.15-2.08l.86.08-.05-.46c-.08-.69-.63-.81-2.7-.57-2.28.26-2.58.34-8.08,2.14-3.61,1.18-5.21,1.51-6.41,1.3-2.3-.4-2.73-1.33-1.26-2.71,1.2-1.13,2.51-1.87,5.65-3.21,1.5-.65,3.38-1.56,4.17-2.04,1.86-1.12,5.47-2.99,6.39-3.32,1.73-.61,3.14-.59,6.2.08.98.21,1.98.32,2.68.3,1.06-.05,1.1-.07,1.1-.45s-.05-.41-1.3-.51c-.72-.05-2.14-.29-3.15-.53s-2.02-.43-2.23-.43-.39-.05-.39-.12.18-.93.4-1.91c1.41-6.31,1.56-12.21.49-18.54-.71-4.18-1.73-7.53-3.63-11.85-.37-.84-.61-1.46-.53-1.38.08.08.98,1.51,2.02,3.16,2.81,4.51,5.35,9.37,8.24,15.72.79,1.74,1.89,4.11,2.44,5.27,5.15,10.8,5.29,11.37,3.95,15.56Zm-21.25,20.48c-1.09.98-6.23,4.09-8.64,5.22-1.84.87-5.61,2.42-5.9,2.42-.09,0-.24-.18-.34-.4-.4-.88.72-2.19,2.6-3.05.59-.27,1.84-.93,2.78-1.47,3.9-2.26,3.71-2.18,5.97-2.45,1.14-.14,2.35-.27,2.71-.3.35-.03.72-.07.8-.08.1-.02.1.03,0,.11Zm-13.13-89.51c-.05.05-.63-.41-1.29-1.03s-1.79-1.59-2.52-2.17c-.72-.58-1.31-1.09-1.32-1.15,0-.05.28-.25.63-.45.74-.42,2.79-2.24,3.69-3.29l.63-.72.14,4.36c.07,2.4.09,4.4.05,4.44Zm-72.04,18.14l-2.07.63c-1.14.34-4.11,1.26-6.61,2.04-3.28,1.03-4.58,1.37-4.67,1.23-.33-.53.05-6.99,1.01-16.97.18-1.83.54-5.95.81-9.16.58-6.98.97-10.48,1.16-10.36.08.05.14.16.14.24,0,.09.67,1.7,1.48,3.6,2.38,5.52,3.78,9.46,5.36,15.11.45,1.6,1.26,4.3,1.78,5.99,1.06,3.41,1.61,5.75,1.61,6.89v.75Zm108.1,46.84c-.11-1.56-.99-4.29-2.1-6.49-.41-.8-1.03-2.15-1.39-2.99-.36-.85-1.18-2.67-1.82-4.06-.64-1.38-1.42-3.13-1.73-3.89-.56-1.33-4.59-9.21-6.32-12.32-.47-.85-1.66-2.78-2.64-4.3-1.13-1.74-1.73-2.81-1.64-2.91.23-.22.19-1.18-.07-1.68-.32-.61-1.06-1.28-1.99-1.79-1.51-.82-1.44-.74-1.14-1.18.44-.62.35-1.81-.17-2.42-.23-.28-.6-1.04-.82-1.67-.59-1.79-1.89-4.23-3.2-6.02-.21-.29-.21-.44,0-1.22.42-1.58,0-2.67-1.69-4.32-1.32-1.29-2.87-2.48-4.82-3.69-.8-.51-1.88-1.31-2.38-1.81l-.92-.89-.14-3.03c-.07-1.67-.14-4.31-.14-5.87v-2.84s.74-1.21.74-1.21c2.07-3.38,2.91-6.21,2.91-9.84,0-1.53-.13-2.4-.68-4.83-.13-.55-.2-4.16-.24-11.03-.03-5.61-.13-11.13-.22-12.24-.4-4.84-.52-5.85-.91-7.61-.43-1.98-1.17-3.73-2.01-4.73-.63-.75-2.3-1.84-6.58-4.3-6.73-3.85-9.6-5.35-15.43-8.07-3.92-1.83-5.77-3.19-7.13-5.26-.96-1.46-1.47-2.83-1.96-5.27-.23-1.14-.45-2.13-.49-2.2-.11-.18-.97-5.54-1.38-8.59-.18-1.38-.41-2.68-.49-2.88-.16-.38-.71-.5-.9-.2-.06.09-.03.55.06,1.02.09.46.24,1.5.34,2.3.32,2.6,1.15,8.06,1.54,10.06.45,2.34,2.56,9.66,3.6,12.52,1.14,3.15,1.58,3.87,2.09,3.44.33-.28.31-.45-.18-1.56-.39-.88-2.34-6.46-2.34-6.7,0-.06.39.26.85.7,1.61,1.51,3.17,2.42,7.35,4.32,6.76,3.06,18.63,9.69,19.86,11.1,1.21,1.38,1.96,3.41,2.46,6.66.66,4.31.72,5.58.73,15.11,0,5.1,0,9.28-.02,9.28-.02,0-.23-.34-.47-.77-.24-.42-.57-.91-.72-1.09-.58-.67-2.85-4.61-3.74-6.5-1.13-2.37-1.92-4.46-2.7-7.09-.55-1.85-.59-2.15-.68-4.97l-.1-2.99h-.41c-.39,0-.41.05-.54,1.38-.29,3.1.26,6.1,1.94,10.73.77,2.1,2.5,5.62,3.91,7.91,2.69,4.39,3.4,6.03,4.08,9.37.69,3.35.6,5.13-.4,8.14-1.64,4.93-5.82,9.96-9.69,11.67-.84.37-1.17.71-1.04,1.05.11.3.86.31,1.4.02.38-.21.47-.16,1.79.91.76.62,2.18,1.87,3.15,2.77,1.47,1.36,1.71,1.66,1.46,1.74-.17.06-1.58.16-3.15.21-3.33.11-7.19.55-11.94,1.34-2.99.51-5.1.95-11.04,2.34-.8.19-2.38.56-3.49.82-1.12.26-2.58.65-3.25.87-.67.22-2.39.66-3.81.98-7.5,1.68-18.13,4.57-28.93,7.85-2.64.8-4.86,1.46-4.94,1.46-.08,0-.15-.22-.15-.5,0-.93-.66-3.74-1.46-6.21-.43-1.34-1.16-3.83-1.63-5.52-.46-1.7-1.35-4.65-1.98-6.55-1.1-3.35-3.93-10.65-4.42-11.4-.59-.91-1.76-3.96-1.73-4.54.04-.94,1.13-6.92,1.43-7.82.15-.44.38-.9.53-1.01.33-.24.06-.76-.44-.83-.75-.11-1.25,1.58-2.29,7.67-.89,5.22-1.07,6.78-1.65,13.7-.27,3.26-.67,7.78-.89,10.05-.86,9.03-1.24,14.46-1.13,16.21l.1,1.7-2.98.95c-1.64.52-3.14,1.05-3.34,1.18-.41.25-.49.83-.14.96.13.05,2.7-.71,5.72-1.7,12.79-4.15,28.84-8.98,37.81-11.38,3.98-1.07,5.76-1.52,16.32-4.11,2.37-.58,5.36-1.34,6.66-1.69,4.88-1.31,11.13-2.5,17.7-3.37,4.19-.56,9.16-.65,10.01-.18,1.82.99,5.86,3.75,7.12,4.85,1.07.94,1.71,2,1.71,2.82,0,1.26-.07,1.28-1.39.39-.65-.44-1.94-1.21-2.85-1.71-2.17-1.18-2.96-1.73-3.49-2.44-.51-.66-1.08-.71-1.17-.1-.09.63,1.44,1.92,4.04,3.39,2.97,1.69,4.18,2.57,5.1,3.74.7.89,2.61,4.37,2.47,4.51-.03.04-.79-.41-1.67-.99-.88-.58-2.56-1.54-3.72-2.13-2.8-1.41-4.95-2.68-5.44-3.2-.75-.81-1.66-.32-1.02.54.52.7,1.59,1.36,5.39,3.33,2.01,1.04,3.91,2.09,4.22,2.32.31.24.99.71,1.49,1.05,1.17.78,2.41,2.14,2.41,2.64,0,.21-.15.48-.33.61-.36.26-.97.06-6-1.91-1.3-.51-3.27-1.26-4.39-1.66-2.27-.82-3.09-1.2-3.4-1.58-.27-.33-.8-.33-.93,0-.3.79.87,1.53,4.33,2.74,1.2.42,2.91,1.06,3.8,1.42.88.36,2.6,1.04,3.81,1.51,4.02,1.55,4.77,1.91,5.49,2.6s.87,1.19.45,1.53c-.32.26-1.14.05-5.19-1.38-3.74-1.31-7.92-2.31-10.47-2.52-2.68-.22-9.72-.62-12.67-.73-3.63-.13-4.71-.3-10.23-1.57-4.11-.95-5.26-1.16-6.76-1.22l-1.81-.07-2.57,1.08c-2.87,1.21-6.95,2.86-11.34,4.59-4.95,1.95-9.88,4.03-14.37,6.07-2.37,1.07-5.51,2.48-6.98,3.13-1.47.65-4.49,2.02-6.7,3.06s-4.07,1.89-4.13,1.89c-.05,0-2.26,1.05-4.91,2.34-5.19,2.52-6.18,2.94-9.73,4.16-4.18,1.42-6.95,1.75-9.28,1.1-3.07-.85-4.65-2.32-5.93-5.51-1.39-3.46-2.45-9.78-2.64-15.8-.17-5.38.88-23.07,2.15-36.21.22-2.26.66-6.92.97-10.34,1.16-12.66,2.83-25.23,4.07-30.45.93-3.93,1.06-4.34,2.15-6.47,1.7-3.36,3.39-4.55,11.68-8.28,2.89-1.3,5.37-2.62,6.01-3.21.42-.38.48-.9.14-1.03-.13-.05-.88.31-1.68.78-.79.48-2.72,1.44-4.28,2.15-4.8,2.16-8.66,4.15-9.76,5.04-1.58,1.29-3.28,3.94-4.26,6.69-.82,2.29-1.72,6.63-2.46,11.86-1.51,10.7-1.91,14.11-2.68,22.61-.28,3.03-.64,6.94-.82,8.68-1.28,12.74-2.58,34.04-2.35,38.5.33,6.59,1.44,12.92,2.82,16.13,1.49,3.46,3.02,4.81,6.59,5.85,3.98,1.16,9.38-.26,19.24-5.04,2.72-1.32,5.13-2.45,5.35-2.52.39-.11.39-.11.15.27-1.33,2.06-5.08,9.14-6.95,13.11-2.36,5.04-4.22,10.7-6.59,20.02-2.29,9.02-3.25,15.28-3.44,22.49-.09,3.6-.08,3.85.19,3.95.55.21.68-.3.79-3.3.33-8.85,1.77-17,4.98-28.37,1.83-6.45,3.02-9.82,5.05-14.3,1.99-4.4,6.63-13.04,7.76-14.47.38-.47,1.68-1.18,3.59-1.94.67-.27,1.44-.62,1.7-.78.27-.17,1.69-.82,3.17-1.47s4.65-2.07,7.06-3.16c5.58-2.54,10.99-4.79,18.27-7.62,2.01-.78,4.82-1.92,6.25-2.54,2.58-1.11,4.29-1.6,5.52-1.58,1.29.02,6.09.93,7.57,1.44,1.14.4,4.61,1.08,6.56,1.3.8.09,2.59.16,3.98.17,2.93,0,12.42.55,13.96.8.58.1,1.68.35,2.44.57.76.22,2.2.62,3.21.89s2.65.81,3.65,1.21c1.01.39,2.05.76,2.32.81.33.07.55.25.67.54.1.24.52,1.24.94,2.22,2.67,6.32,3.78,11.06,4.15,17.76.17,3.11.08,4.46-.57,8.67-.43,2.74-.64,3.88-.9,4.82-.16.56-.2.59-1.39.85-1.24.28-3.1,1.15-7.7,3.65-1.21.65-3.33,1.71-4.73,2.35-4.94,2.28-6.84,4.07-6.25,5.88.13.37.11.38-1.07.3-.66-.04-1.89-.19-2.73-.32-.85-.13-2.02-.29-2.59-.35-.58-.06-1.73-.21-2.56-.33-1.71-.25-2.78-.14-4.09.43-1.03.44-1.47.97-1.47,1.77s.45,1.35,1.43,1.86l.76.4h-.55c-.78.02-1.54.43-2.29,1.24-.56.61-.66.82-.66,1.43,0,1.05.48,1.39,2.95,2.03,1.1.29,2.33.61,2.74.72l.73.2-1.27.61c-1.5.72-2.22,1.56-2.22,2.55,0,.74.58,1.51,1.34,1.76.8.26,3.11.5,4.71.5.79,0,2.73.16,4.31.34,2.21.27,3.35.32,4.98.25l2.11-.1-.65.42c-.35.22-1.42.78-2.35,1.22-2.06.98-3.19,1.8-3.87,2.83-.58.87-.68,1.86-.27,2.65.49.96,1.11.82,6.4-1.36,3.98-1.65,10.55-5.91,18.55-12.07,3.39-2.61,9.78-8.66,10.96-10.4,1.71-2.5,2.93-6.41,2.77-8.83"/><path d="m167.98,104.11c2.26.39,6.22.61,8.94.5,6.56-.28,11.54-1.35,15.44-3.35,2.36-1.21,4.91-3.21,4.83-3.79-.09-.61-.59-.45-1.91.59-4.59,3.67-11.24,5.47-20.24,5.47-6.02,0-10.56-.98-15.24-3.31-2.48-1.23-3.78-2.21-4.56-3.43-.53-.82-.83-1.04-1.09-.78-.23.23-.09.79.4,1.55,1.64,2.55,7.82,5.55,13.44,6.53"/><path d="m218.25,159.62c-.48.34-1.05-1.47-.56-3.31,1.28-4.89,9.47-9.25,10.03-15.81.3-3.53-3.71-3.27-6.63-1.29-2.07,1.41-4.25,4.42-4.13,6.97.01.24.07.4-.13.46-.25.08-.59-.09-.6-.3-.13-2.22-3.4-6.76-6.66-5.9-1.42.38-2.15,1.66-2.29,3.11-.21,2.15.87,4.16,2.16,5.9,1.9,2.55,6.22,5.19,6.75,5.27.32.04.03.46-1.35-.12-3.59-1.49-7.24-4.72-8.58-8.49-2.53-7.11,6.36-9.87,10.13-1.8.02-.04,1.01-3.91,4.42-6.32,4.28-3.02,8.62-.87,8.75,2.72.18,5.05-5.01,9.62-8.09,12.83-2.78,2.9-3.16,6.03-3.21,6.07"/><path d="m6.37,237.19c0,5.72,3,10.07,11.4,10.07,7.08,0,9.96-2.68,9.96-7.47,0-4.08-1.88-6.08-6.76-6.92l-6.87-1.16c-4.12-.68-4.88-2.76-4.88-5,0-3.52,2.24-5.88,7.76-5.88,5.96,0,8.36,3,8.64,7.4h1.68c-.36-5.8-4.36-8.84-10.32-8.84-6.44,0-9.52,3.32-9.52,7.32,0,3.6,1.64,5.72,6.44,6.56l6.52,1.12c4.12.72,5.56,2.24,5.56,5.72,0,3.8-2.44,5.72-8.2,5.72-8,0-9.72-4.4-9.72-8.64h-1.68Z"/><path d="m51.71,247.39c8.68,0,12.8-5.64,12.8-14.04s-4.12-13.96-12.8-13.96-12.8,5.64-12.8,13.96,4.12,14.04,12.8,14.04Zm-10.99-14.04c0-8.44,3.64-12.52,10.99-12.52s11,4.08,11,12.52-3.64,12.59-11,12.59-10.99-4.12-10.99-12.59Z"/><path d="m87.7,220.11h-11.4v26.59h1.68v-12.16h9.32c5.76,0,8.04-3.12,8.04-7.24s-2.28-7.2-7.64-7.2Zm-.48,12.99h-9.24v-11.56h9.64c4,0,5.92,1.72,5.92,5.76,0,3.64-1.92,5.8-6.32,5.8Z"/><path d="m126.17,220.11v12.08h-17.76v-12.08h-1.68v26.59h1.68v-13.08h17.76v13.08h1.68v-26.59h-1.68Z"/><path d="m154,221.55v-1.44h-13.76v1.44h6.04v23.72h-6.04v1.44h13.76v-1.44h-6.04v-23.72h6.04Z"/><path d="m186.63,246.71h1.76l-10.52-26.59h-2.36l-10.52,26.59h1.72l3.08-7.76h13.76l3.08,7.76Zm-16.28-9.2l6.32-15.99,6.32,15.99h-12.64Z"/><path d="m233.82,220.11h-22.08v1.44h10.24v25.23h1.68v-25.23h10.16v-1.44Z"/><path d="m250.74,216.91h2.32v-2.72h-2.32v2.72Zm5.47,0h2.32v-2.72h-2.32v2.72Zm-11.8,20.59c0,6.24,2.88,9.84,10.24,9.84s10.24-3.64,10.24-9.84v-17.4h-1.68v17.35c0,5.84-2.64,8.44-8.56,8.44s-8.56-2.6-8.56-8.44v-17.35h-1.68v17.4Z"/><path d="m295.64,239.35c0-4.32-2.08-5.64-4.28-6.04,2.96-.52,5.11-3.16,5.11-6.56,0-4.04-2.16-6.64-7.52-6.64h-11.68v26.59h1.68v-12.72h9.04c4.11,0,5.96,1.84,5.96,5.6v3.16c0,1.44.08,2.68.4,3.96h1.68c-.32-1.48-.4-2.48-.4-3.96v-3.4Zm-16.68-6.76v-11.04h9.8c4,0,5.92,1.44,5.92,5.44,0,3.4-1.92,5.6-6.32,5.6h-9.4Z"/><path d="m320.39,220.11h-11.4v26.59h1.68v-12.16h9.32c5.76,0,8.04-3.12,8.04-7.24s-2.28-7.2-7.64-7.2Zm-.48,12.99h-9.24v-11.56h9.64c4,0,5.92,1.72,5.92,5.76,0,3.64-1.92,5.8-6.32,5.8Z"/><path d="m341.11,245.27v-11.68h15.96v-1.44h-15.96v-10.6h17.16v-1.44h-18.83v26.59h18.95v-1.44h-17.28Z"/><path d="m133.53,263.54c.15,0,.27.05.35.15.09.08.15.2.15.35v10.21c-.02.16-.07.28-.17.38-.1.08-.22.13-.35.13s-.26-.05-.35-.15c-.1-.09-.15-.21-.15-.35v-4.77h-6.48v4.77c-.02.14-.07.26-.17.35-.1.1-.22.15-.35.15-.16,0-.28-.04-.38-.13-.08-.09-.13-.22-.13-.38v-10.21c0-.15.05-.27.15-.35.09-.09.22-.15.38-.15.14,0,.26.05.35.15.09.1.15.22.15.35v4.52h6.48v-4.52c0-.14.05-.26.15-.35.11-.09.23-.15.38-.15Z"/><path d="m150.08,273.81c.14,0,.25.05.33.15.09.1.15.21.15.33,0,.14-.05.25-.15.33-.08.08-.2.13-.33.13h-5.88c-.14,0-.26-.04-.35-.13-.08-.09-.13-.21-.13-.35v-10.25c0-.14.04-.25.13-.33.09-.09.21-.15.35-.15h5.88c.14,0,.25.05.33.15.09.08.15.2.15.33s-.05.26-.15.35c-.08.08-.2.13-.33.13h-5.33v4h4.63c.14,0,.25.05.33.15.09.1.15.22.15.35s-.05.25-.15.33c-.08.08-.2.13-.33.13h-4.63v4.35h5.33Z"/><path d="m165.48,268.79c.65.17,1.18.49,1.58.98.4.47.6,1.09.6,1.85,0,1.06-.33,1.84-.98,2.35-.64.52-1.44.77-2.4.77h-4.31c-.14,0-.26-.04-.35-.13-.08-.09-.13-.21-.13-.35v-10.25c0-.14.04-.25.13-.33.09-.09.21-.15.35-.15h4.25c.89,0,1.58.25,2.08.75.51.49.77,1.16.77,2,0,.57-.14,1.08-.42,1.54-.28.45-.68.77-1.19.96Zm.58-2.42c0-.58-.18-1.04-.52-1.38-.35-.33-.83-.5-1.44-.5h-3.58v4h3.58c.57-.01,1.03-.2,1.4-.56.38-.36.56-.88.56-1.56Zm-1.81,7.44c.71,0,1.28-.18,1.73-.54.44-.38.67-.92.67-1.65s-.23-1.3-.69-1.65c-.46-.34-1.04-.52-1.75-.52h-3.69v4.35h3.73Z"/><path d="m184.96,274.1c.03.08.04.15.04.19,0,.14-.05.26-.15.35-.1.08-.21.13-.33.13-.11,0-.21-.03-.29-.08-.08-.07-.15-.15-.19-.25l-1.19-2.92h-5.21l-1.19,2.92c-.08.22-.22.33-.42.33-.16,0-.27-.03-.35-.1-.07-.08-.11-.19-.13-.31v-.06c0-.05,0-.09.02-.13l4.23-10.35c.08-.21.24-.31.48-.31.11,0,.2.04.27.1.08.06.15.13.19.21l4.21,10.29Zm-6.94-3.52h4.44l-2.23-5.48-2.21,5.48Z"/><path d="m203.41,263.54c.13,0,.23.05.31.15.09.08.15.2.15.33v10.25c0,.14-.05.26-.15.35-.1.08-.22.13-.35.13-.16,0-.28-.04-.38-.13-.08-.09-.13-.21-.13-.35v-8.79l-3.77,5.69c-.11.14-.24.2-.38.19h-.02c-.13,0-.24-.06-.35-.19l-3.75-5.73v8.83c0,.14-.05.26-.15.35-.1.08-.22.13-.35.13s-.25-.04-.33-.13c-.08-.09-.13-.21-.13-.35v-10.25c0-.13.04-.23.13-.33.09-.09.21-.15.35-.15.08,0,.17.02.25.06s.15.09.19.15l4.19,6.29,4.23-6.29c.11-.15.26-.22.44-.21Z"/><path d="m223.33,263.54c.13,0,.23.05.31.15.09.08.15.2.15.33v10.25c0,.14-.05.26-.15.35-.1.08-.22.13-.35.13-.16,0-.28-.04-.38-.13-.08-.09-.13-.21-.13-.35v-8.79l-3.77,5.69c-.11.14-.24.2-.38.19h-.02c-.13,0-.24-.06-.35-.19l-3.75-5.73v8.83c0,.14-.05.26-.15.35-.1.08-.22.13-.35.13s-.25-.04-.33-.13c-.08-.09-.13-.21-.13-.35v-10.25c0-.13.04-.23.13-.33.09-.09.21-.15.35-.15.08,0,.17.02.25.06s.15.09.19.15l4.19,6.29,4.23-6.29c.11-.15.26-.22.44-.21Z"/><path d="m239.84,273.81c.14,0,.25.05.33.15.09.1.15.21.15.33,0,.14-.05.25-.15.33-.08.08-.2.13-.33.13h-5.88c-.14,0-.26-.04-.35-.13-.08-.09-.13-.21-.13-.35v-10.25c0-.14.04-.25.13-.33.09-.09.21-.15.35-.15h5.88c.14,0,.25.05.33.15.09.08.15.2.15.33s-.05.26-.15.35c-.08.08-.2.13-.33.13h-5.33v4h4.63c.14,0,.25.05.33.15.09.1.15.22.15.35s-.05.25-.15.33c-.08.08-.2.13-.33.13h-4.63v4.35h5.33Z"/></svg>