<?xml version="1.0" encoding="UTF-8"?><svg id="Ebene_1" xmlns="http://www.w3.org/2000/svg" viewBox="0 0 362.99 65.29"><path d="m6.37,25.29c0,5.72,3,10.07,11.4,10.07,7.08,0,9.96-2.68,9.96-7.47,0-4.08-1.88-6.08-6.76-6.92l-6.87-1.16c-4.12-.68-4.88-2.76-4.88-5,0-3.52,2.24-5.88,7.76-5.88,5.96,0,8.36,3,8.64,7.4h1.68c-.36-5.8-4.36-8.84-10.32-8.84-6.44,0-9.52,3.32-9.52,7.32,0,3.6,1.64,5.72,6.44,6.56l6.52,1.12c4.12.72,5.56,2.24,5.56,5.72,0,3.8-2.44,5.72-8.2,5.72-8,0-9.72-4.4-9.72-8.64h-1.68Z"/><path d="m51.71,35.49c8.68,0,12.8-5.64,12.8-14.04s-4.12-13.96-12.8-13.96-12.8,5.64-12.8,13.96,4.12,14.04,12.8,14.04Zm-10.99-14.04c0-8.44,3.64-12.52,10.99-12.52s11,4.08,11,12.52-3.64,12.59-11,12.59-10.99-4.12-10.99-12.59Z"/><path d="m87.7,8.22h-11.4v26.59h1.68v-12.16h9.32c5.76,0,8.04-3.12,8.04-7.24s-2.28-7.2-7.64-7.2Zm-.48,12.99h-9.24v-11.56h9.64c4,0,5.92,1.72,5.92,5.76,0,3.64-1.92,5.8-6.32,5.8Z"/><path d="m126.17,8.22v12.08h-17.76v-12.08h-1.68v26.59h1.68v-13.08h17.76v13.08h1.68V8.22h-1.68Z"/><path d="m154,9.65v-1.44h-13.76v1.44h6.04v23.72h-6.04v1.44h13.76v-1.44h-6.04V9.65h6.04Z"/><path d="m186.63,34.81h1.76l-10.52-26.59h-2.36l-10.52,26.59h1.72l3.08-7.76h13.76l3.08,7.76Zm-16.28-9.2l6.32-15.99,6.32,15.99h-12.64Z"/><path d="m233.82,8.22h-22.08v1.44h10.24v25.23h1.68V9.65h10.16v-1.44Z"/><path d="m250.74,5.02h2.32v-2.72h-2.32v2.72Zm5.47,0h2.32v-2.72h-2.32v2.72Zm-11.8,20.59c0,6.24,2.88,9.84,10.24,9.84s10.24-3.64,10.24-9.84V8.22h-1.68v17.35c0,5.84-2.64,8.44-8.56,8.44s-8.56-2.6-8.56-8.44V8.22h-1.68v17.4Z"/><path d="m295.64,27.45c0-4.32-2.08-5.64-4.28-6.04,2.96-.52,5.11-3.16,5.11-6.56,0-4.04-2.16-6.64-7.52-6.64h-11.68v26.59h1.68v-12.72h9.04c4.11,0,5.96,1.84,5.96,5.6v3.16c0,1.44.08,2.68.4,3.96h1.68c-.32-1.48-.4-2.48-.4-3.96v-3.4Zm-16.68-6.76v-11.04h9.8c4,0,5.92,1.44,5.92,5.44,0,3.4-1.92,5.6-6.32,5.6h-9.4Z"/><path d="m320.39,8.22h-11.4v26.59h1.68v-12.16h9.32c5.76,0,8.04-3.12,8.04-7.24s-2.28-7.2-7.64-7.2Zm-.48,12.99h-9.24v-11.56h9.64c4,0,5.92,1.72,5.92,5.76,0,3.64-1.92,5.8-6.32,5.8Z"/><path d="m341.11,33.37v-11.68h15.96v-1.44h-15.96v-10.6h17.16v-1.44h-18.83v26.59h18.95v-1.44h-17.28Z"/><path d="m133.53,51.64c.15,0,.27.05.35.15.09.08.15.2.15.35v10.21c-.02.16-.07.28-.17.38-.1.08-.22.13-.35.13s-.26-.05-.35-.15c-.1-.09-.15-.21-.15-.35v-4.77h-6.48v4.77c-.02.14-.07.26-.17.35-.1.1-.22.15-.35.15-.16,0-.28-.04-.38-.13-.08-.09-.13-.22-.13-.38v-10.21c0-.15.05-.27.15-.35.09-.09.22-.15.38-.15.14,0,.26.05.35.15.09.1.15.22.15.35v4.52h6.48v-4.52c0-.14.05-.26.15-.35.11-.09.23-.15.38-.15Z"/><path d="m150.08,61.91c.14,0,.25.05.33.15.09.1.15.21.15.33,0,.14-.05.25-.15.33-.08.08-.2.13-.33.13h-5.88c-.14,0-.26-.04-.35-.13-.08-.09-.13-.21-.13-.35v-10.25c0-.14.04-.25.13-.33.09-.09.21-.15.35-.15h5.88c.14,0,.25.05.33.15.09.08.15.2.15.33s-.05.26-.15.35c-.08.08-.2.13-.33.13h-5.33v4h4.63c.14,0,.25.05.33.15.09.1.15.22.15.35s-.05.25-.15.33c-.08.08-.2.13-.33.13h-4.63v4.35h5.33Z"/><path d="m165.48,56.89c.65.17,1.18.49,1.58.98.4.47.6,1.09.6,1.85,0,1.06-.33,1.84-.98,2.35-.64.52-1.44.77-2.4.77h-4.31c-.14,0-.26-.04-.35-.13-.08-.09-.13-.21-.13-.35v-10.25c0-.14.04-.25.13-.33.09-.09.21-.15.35-.15h4.25c.89,0,1.58.25,2.08.75.51.49.77,1.16.77,2,0,.57-.14,1.08-.42,1.54-.28.45-.68.77-1.19.96Zm.58-2.42c0-.58-.18-1.04-.52-1.38-.35-.33-.83-.5-1.44-.5h-3.58v4h3.58c.57-.01,1.03-.2,1.4-.56.38-.36.56-.88.56-1.56Zm-1.81,7.44c.71,0,1.28-.18,1.73-.54.44-.38.67-.92.67-1.65s-.23-1.3-.69-1.65c-.46-.34-1.04-.52-1.75-.52h-3.69v4.35h3.73Z"/><path d="m184.96,62.2c.03.08.04.15.04.19,0,.14-.05.26-.15.35-.1.08-.21.13-.33.13-.11,0-.21-.03-.29-.08-.08-.07-.15-.15-.19-.25l-1.19-2.92h-5.21l-1.19,2.92c-.08.22-.22.33-.42.33-.16,0-.27-.03-.35-.1-.07-.08-.11-.19-.13-.31v-.06c0-.05,0-.09.02-.13l4.23-10.35c.08-.21.24-.31.48-.31.11,0,.2.04.27.1.08.06.15.13.19.21l4.21,10.29Zm-6.94-3.52h4.44l-2.23-5.48-2.21,5.48Z"/><path d="m203.41,51.64c.13,0,.23.05.31.15.09.08.15.2.15.33v10.25c0,.14-.05.26-.15.35-.1.08-.22.13-.35.13-.16,0-.28-.04-.38-.13-.08-.09-.13-.21-.13-.35v-8.79l-3.77,5.69c-.11.14-.24.2-.38.19h-.02c-.13,0-.24-.06-.35-.19l-3.75-5.73v8.83c0,.14-.05.26-.15.35-.1.08-.22.13-.35.13s-.25-.04-.33-.13c-.08-.09-.13-.21-.13-.35v-10.25c0-.13.04-.23.13-.33.09-.09.21-.15.35-.15.08,0,.17.02.25.06s.15.09.19.15l4.19,6.29,4.23-6.29c.11-.15.26-.22.44-.21Z"/><path d="m223.33,51.64c.13,0,.23.05.31.15.09.08.15.2.15.33v10.25c0,.14-.05.26-.15.35-.1.08-.22.13-.35.13-.16,0-.28-.04-.38-.13-.08-.09-.13-.21-.13-.35v-8.79l-3.77,5.69c-.11.14-.24.2-.38.19h-.02c-.13,0-.24-.06-.35-.19l-3.75-5.73v8.83c0,.14-.05.26-.15.35-.1.08-.22.13-.35.13s-.25-.04-.33-.13c-.08-.09-.13-.21-.13-.35v-10.25c0-.13.04-.23.13-.33.09-.09.21-.15.35-.15.08,0,.17.02.25.06s.15.09.19.15l4.19,6.29,4.23-6.29c.11-.15.26-.22.44-.21Z"/><path d="m239.84,61.91c.14,0,.25.05.33.15.09.1.15.21.15.33,0,.14-.05.25-.15.33-.08.08-.2.13-.33.13h-5.88c-.14,0-.26-.04-.35-.13-.08-.09-.13-.21-.13-.35v-10.25c0-.14.04-.25.13-.33.09-.09.21-.15.35-.15h5.88c.14,0,.25.05.33.15.09.08.15.2.15.33s-.05.26-.15.35c-.08.08-.2.13-.33.13h-5.33v4h4.63c.14,0,.25.05.33.15.09.1.15.22.15.35s-.05.25-.15.33c-.08.08-.2.13-.33.13h-4.63v4.35h5.33Z"/></svg>